<svg width="96" height="133" viewBox="0 0 96 133" fill="none" xmlns="http://www.w3.org/2000/svg">
<path d="M9.57764 0H15.5677V5.91891H21.0479V0H27.0393V17.9232H21.0479V11.9216H15.5677V17.9229H9.57764V0Z" fill="white"/>
<path d="M34.9167 5.94338H29.6421V0H46.183V5.94366H40.907V17.9232H34.9164L34.9167 5.94338Z" fill="white"/>
<path d="M48.8096 0H55.0561L58.8983 6.29775L62.7368 0H68.9859V17.9232H63.02V9.03966L58.8983 15.4122H58.7954L54.6708 9.03966V17.9229H48.8096V0Z" fill="white"/>
<path d="M71.9678 0H77.9607V11.9993H86.3855V17.9229H71.9678V0Z" fill="white"/>
<path d="M32.4361 69.2899H47.9999V57.2186H31.3587L32.4361 69.2899ZM0.942871 25.7822L9.51256 121.897L47.9769 132.575L86.4775 121.902L95.0576 25.7822H0.942871ZM79.1326 115.782L47.9999 124.413V112.18L47.9811 112.186L23.8335 105.482L22.1449 86.5544H33.9785L34.8549 96.374L47.9836 99.9197L48.0002 99.9144V81.0782H21.6558L18.476 45.43H47.9999V33.6417H86.4654L79.1326 115.782Z" fill="white"/>
<path opacity="0.8" d="M62.5103 81.0782H48V99.9146L61.1422 96.3672L62.5103 81.0782ZM48 33.6417V45.43H77.5242L76.4684 57.2186H48V69.2899H75.3954L72.1613 105.482L48 112.18V124.413L79.1327 115.782L86.4652 33.6414H48V33.6417Z" fill="white"/>
<g opacity="0.2">
<path d="M47.9998 45.43H18.4756L21.6554 81.0782H47.9998V69.2899H32.436L31.3585 57.2186H47.9998V45.43Z" fill="white"/>
<path d="M47.9998 99.9143L47.9832 99.9197L34.8548 96.3739L33.9784 86.5544H22.1445L23.8332 105.482L47.981 112.185L47.9998 112.18V99.9143Z" fill="white"/>
</g>
</svg>
