<svg width="190" height="190" viewBox="0 0 190 190" fill="none" xmlns="http://www.w3.org/2000/svg">
<rect width="190" height="190" rx="10" fill="#192334"/>
<path d="M56.5776 26H62.5677V31.9189H68.0479V26H74.0393V43.9232H68.0479V37.9216H62.5677V43.9229H56.5776V26Z" fill="white"/>
<path d="M81.9167 31.9434H76.6421V26H93.183V31.9437H87.907V43.9232H81.9164L81.9167 31.9434Z" fill="white"/>
<path d="M95.8096 26H102.056L105.898 32.2977L109.737 26H115.986V43.9232H110.02V35.0397L105.898 41.4122H105.795L101.671 35.0397V43.9229H95.8096V26Z" fill="white"/>
<path d="M118.968 26H124.961V37.9993H133.385V43.9229H118.968V26Z" fill="white"/>
<path d="M79.4361 95.2899H94.9999V83.2186H78.3587L79.4361 95.2899ZM47.9429 51.7822L56.5126 147.897L94.9769 158.575L133.477 147.902L142.058 51.7822H47.9429ZM126.133 141.782L94.9999 150.413V138.18L94.9811 138.186L70.8335 131.482L69.1449 112.554H80.9785L81.8549 122.374L94.9836 125.92L95.0002 125.914V107.078H68.6558L65.476 71.43H94.9999V59.6417H133.465L126.133 141.782Z" fill="white"/>
<path opacity="0.8" d="M109.51 107.078H95V125.915L108.142 122.367L109.51 107.078ZM95 59.6417V71.43H124.524L123.468 83.2186H95V95.2899H122.395L119.161 131.482L95 138.18V150.413L126.133 141.782L133.465 59.6414H95V59.6417Z" fill="white"/>
<g opacity="0.2">
<path d="M94.9998 71.43H65.4756L68.6554 107.078H94.9998V95.2899H79.436L78.3585 83.2186H94.9998V71.43Z" fill="white"/>
<path d="M94.9998 125.914L94.9832 125.92L81.8548 122.374L80.9784 112.554H69.1445L70.8332 131.482L94.981 138.185L94.9998 138.18V125.914Z" fill="white"/>
</g>
</svg>
