<svg width="48" height="48" viewBox="0 0 48 48" fill="none" xmlns="http://www.w3.org/2000/svg">
<path fill-rule="evenodd" clip-rule="evenodd" d="M24 48C37.2548 48 48 37.2548 48 24C48 10.7452 37.2548 0 24 0C10.7452 0 0 10.7452 0 24C0 37.2548 10.7452 48 24 48ZM33.8707 11.441C31.9347 10.451 29.6687 9.956 27.0727 9.956C23.6847 9.956 20.6157 10.726 17.8657 12.266C15.1377 13.784 12.9927 15.896 11.4307 18.602C9.86871 21.286 9.08771 24.289 9.08771 27.611C9.08771 29.987 9.60471 32.066 10.6387 33.848C11.6727 35.63 13.1357 37.005 15.0277 37.973C16.9417 38.941 19.1527 39.425 21.6607 39.425C24.3447 39.425 26.7647 38.952 28.9207 38.006L28.0297 34.409C26.3137 35.201 24.3667 35.597 22.1887 35.597C19.3947 35.597 17.2167 34.86 15.6547 33.386C14.1147 31.912 13.3447 29.844 13.3447 27.182C13.3447 24.718 13.9167 22.463 15.0607 20.417C16.2047 18.349 17.7777 16.721 19.7797 15.533C21.8037 14.345 24.0477 13.751 26.5117 13.751C29.3937 13.751 31.6267 14.466 33.2107 15.896C34.8167 17.326 35.6197 19.306 35.6197 21.836C35.6197 23.596 35.3337 25.158 34.7617 26.522C34.2117 27.864 33.4087 28.535 32.3527 28.535C31.4947 28.535 31.0657 28.051 31.0657 27.083C31.0657 26.775 31.0987 26.423 31.1647 26.027L32.6167 17.744H28.0627L27.7657 19.493C27.1057 18.173 25.8517 17.513 24.0037 17.513C22.5517 17.513 21.2427 17.942 20.0767 18.8C18.9107 19.658 17.9977 20.802 17.3377 22.232C16.6777 23.64 16.3477 25.147 16.3477 26.753C16.3477 28.447 16.8097 29.789 17.7337 30.779C18.6797 31.747 19.9667 32.231 21.5947 32.231C22.7387 32.231 23.7947 32 24.7627 31.538C25.7307 31.054 26.5227 30.383 27.1387 29.525C27.4027 30.361 27.9087 31.01 28.6567 31.472C29.4267 31.934 30.3947 32.165 31.5607 32.165C33.2987 32.165 34.7947 31.692 36.0487 30.746C37.3247 29.778 38.2817 28.491 38.9197 26.885C39.5797 25.279 39.9097 23.541 39.9097 21.671C39.9097 19.361 39.3817 17.326 38.3257 15.566C37.2917 13.784 35.8067 12.409 33.8707 11.441ZM25.1587 27.611C24.6307 27.985 24.0587 28.172 23.4427 28.172C22.7167 28.172 22.1667 27.952 21.7927 27.512C21.4187 27.072 21.2317 26.489 21.2317 25.763C21.2317 24.619 21.5507 23.629 22.1887 22.793C22.8267 21.957 23.6297 21.539 24.5977 21.539C25.3237 21.539 25.8957 21.781 26.3137 22.265C26.7317 22.727 26.9407 23.332 26.9407 24.08C26.9407 24.806 26.7757 25.488 26.4457 26.126C26.1377 26.742 25.7087 27.237 25.1587 27.611Z" fill="white"/>
</svg>
