<svg width="190" height="190" viewBox="0 0 190 190" fill="none" xmlns="http://www.w3.org/2000/svg">
<rect width="190" height="190" rx="10" fill="#192334"/>
<g opacity="0.5">
<path d="M56.6346 29H62.6247V34.9189H68.1049V29H74.0963V46.9232H68.1049V40.9216H62.6247V46.9229H56.6346V29Z" fill="white"/>
<path d="M81.9739 34.9434H76.6993V29H93.2402V34.9437H87.9642V46.9232H81.9736L81.9739 34.9434Z" fill="white"/>
<path d="M95.8668 29H102.113L105.955 35.2977L109.794 29H116.043V46.9232H110.077V38.0397L105.955 44.4122H105.853L101.728 38.0397V46.9229H95.8668V29Z" fill="white"/>
<path d="M119.025 29H125.018V40.9993H133.443V46.9229H119.025V29Z" fill="white"/>
<path d="M79.4933 98.2899H95.0571V86.2186H78.4158L79.4933 98.2899ZM48 54.7822L56.5697 150.897L95.034 161.575L133.535 150.902L142.115 54.7822H48ZM126.19 144.782L95.0571 153.413V141.18L95.0382 141.186L70.8907 134.482L69.202 115.554H81.0356L81.912 125.374L95.0408 128.92L95.0573 128.914V110.078H68.7129L65.5331 74.43H95.0571V62.6417H133.522L126.19 144.782Z" fill="white"/>
<path opacity="0.8" d="M109.567 110.078H95.0571V128.915L108.199 125.367L109.567 110.078ZM95.0571 62.6417V74.43H124.581L123.525 86.2186H95.0571V98.2899H122.453L119.218 134.482L95.0571 141.18V153.413L126.19 144.782L133.522 62.6414H95.0571V62.6417Z" fill="white"/>
<g opacity="0.2">
<path d="M95.0571 74.43H65.5328L68.7126 110.078H95.0571V98.2899H79.4932L78.4158 86.2186H95.0571V74.43Z" fill="white"/>
<path d="M95.0571 128.914L95.0405 128.92L81.912 125.374L81.0356 115.554H69.2018L70.8904 134.482L95.0382 141.185L95.0571 141.18V128.914Z" fill="white"/>
</g>
</g>
</svg>
